# xmcd
#
# Track frame offsets: 
#        182
#        13045
#        25772
#        39667
#        53745
#        65160
#        75540
#        87555
#        97082
#        107532
#        119897
#        135012
#        144910
#        160005
#        171662
#        191552
#        201825
#        212377
#        222902
#        231837
#
# Disc length: 3239 seconds
#
# Revision: 1
# Processed by: cddbd v1.5.1PL0 Copyright (c) Steve Scherf et al.
# Submitted via: ExactAudioCopy v0.95a5
#
DISCID=1a0ca514
DTITLE=Various Artist - Easy Listening Stars of the 50's and 60's - Disc 3
DYEAR=1995
DGENRE=Easy Listening
TTITLE0=Jonnie Mathis/Wonderful Wonderful
TTITLE1=Jonnie Mathis/A Certain Smile
TTITLE2=Jonnie Mathis/Chances Are
TTITLE3=Jonnie Mathis/It's Not For Me To Say
TTITLE4=Jonnie Mathis/The Twelfth of Never
TTITLE5=Pat Boone/Love Letters In The Sand
TTITLE6=Pat Boone/Moody River
TTITLE7=Pat Boone/A Wonderful Time Up There
TTITLE8=Pat Boone/ For A Penny
TTITLE9=Pat Boone/April Love
TTITLE10=Peggy Lee/Fever
TTITLE11=Peggy Lee/I'm A Woman
TTITLE12=Peggy Lee/Mr Wonderful
TTITLE13=Peggy Lee/The Lady Is A Tramp
TTITLE14=Peggy Lee/Is That All There Is
TTITLE15=Connie Francis/Stupid Cupid
TTITLE16=Connie Francis/Lipstick On Your Collar
TTITLE17=Connie Francis/Who's Sorry Now
TTITLE18=Connie Francis/Many Tears Ago
TTITLE19=Connie Francis/My Happiness
EXTD=
EXTT0=
EXTT1=
EXTT2=
EXTT3=
EXTT4=
EXTT5=
EXTT6=
EXTT7=
EXTT8=
EXTT9=
EXTT10=
EXTT11=
EXTT12=
EXTT13=
EXTT14=
EXTT15=
EXTT16=
EXTT17=
EXTT18=
EXTT19=
PLAYORDER=
